HIERARCHY
ROOT Hips
{
    OFFSET 0.000000 0.000000 0.000000
    CHANNELS 6 Xposition Yposition Zposition Zrotation Xrotation Yrotation
    JOINT Spine
    {
        OFFSET -0.000000 6.925600 0.000000
        CHANNELS 3 Zrotation Xrotation Yrotation
        JOINT Spine1
        {
            OFFSET -0.000000 16.343796 0.000000
            CHANNELS 3 Zrotation Xrotation Yrotation
            JOINT Neck
            {
                OFFSET -0.000000 18.032967 0.000000
                CHANNELS 3 Zrotation Xrotation Yrotation
                JOINT Head
                {
                    OFFSET -0.000000 13.091072 1.689171
                    CHANNELS 3 Zrotation Xrotation Yrotation
                    End Site
                    {
                        OFFSET -0.000000 16.891708 0.000000
                    }
                }
            }
            JOINT LeftShoulder
            {
                OFFSET 3.336773 14.146137 -0.012206
                CHANNELS 3 Zrotation Xrotation Yrotation
                JOINT LeftArm
                {
                    OFFSET 11.765518 0.000000 0.000000
                    CHANNELS 3 Zrotation Xrotation Yrotation
                    JOINT LeftForeArm
                    {
                        OFFSET 25.163450 0.000000 0.000000
                        CHANNELS 3 Zrotation Xrotation Yrotation
                        JOINT LeftHand
                        {
                            OFFSET 21.783554 0.000000 0.000000
                            CHANNELS 3 Zrotation Xrotation Yrotation
                            End Site
                            {
                                OFFSET 12.668781 0.000000 0.000000
                            }
                        }
                    }
                }
            }
            JOINT RightShoulder
            {
                OFFSET -3.409204 14.146137 -0.012206
                CHANNELS 3 Zrotation Xrotation Yrotation
                JOINT RightArm
                {
                    OFFSET -11.765518 0.000000 0.000000
                    CHANNELS 3 Zrotation Xrotation Yrotation
                    JOINT RightForeArm
                    {
                        OFFSET -25.163450 0.000000 0.000000
                        CHANNELS 3 Zrotation Xrotation Yrotation
                        JOINT RightHand
                        {
                            OFFSET -21.783554 0.000000 0.000000
                            CHANNELS 3 Zrotation Xrotation Yrotation
                            End Site
                            {
                                OFFSET -12.668781 0.000000 0.000000
                            }
                        }
                    }
                }
            }
        }
    }
    JOINT LeftUpLeg
    {
        OFFSET 8.445854 0.000000 0.000000
        CHANNELS 3 Zrotation Xrotation Yrotation
        JOINT LeftLeg
        {
            OFFSET -0.000000 -40.674755 0.000000
            CHANNELS 3 Zrotation Xrotation Yrotation
            JOINT LeftFoot
            {
                OFFSET -0.000000 -37.111794 0.000000
                CHANNELS 3 Zrotation Xrotation Yrotation
                JOINT LeftToeBase
                {
                    OFFSET -0.000000 -5.489805 12.668781
                    CHANNELS 3 Zrotation Xrotation Yrotation
                    End Site
                    {
                        OFFSET -0.000000 0.000000 3.378341
                    }
                }
            }
        }
    }
    JOINT RightUpLeg
    {
        OFFSET -8.445854 0.000000 0.000000
        CHANNELS 3 Zrotation Xrotation Yrotation
        JOINT RightLeg
        {
            OFFSET -0.000000 -40.674755 0.000000
            CHANNELS 3 Zrotation Xrotation Yrotation
            JOINT RightFoot
            {
                OFFSET -0.000000 -37.111794 0.000000
                CHANNELS 3 Zrotation Xrotation Yrotation
                JOINT RightToeBase
                {
                    OFFSET -0.000000 -5.489805 12.668781
                    CHANNELS 3 Zrotation Xrotation Yrotation
                    End Site
                    {
                        OFFSET -0.000000 0.000000 3.378341
                    }
                }
            }
        }
    }
}
MOTION
Frames:    4
Frame Time:    0.008333
-95.864777    82.056129    9.556322    -11.575592    2.441856    -98.383644    -2.430964    2.018277    -3.834111    3.359425    12.745772    -1.669681    -8.470341    19.276510    4.997725    8.845822    9.460454    0.743499    -0.941271    8.210972    8.933036    -57.451298    18.254948    -31.918268    14.329218    -8.365875    -31.172867    5.556358    -4.806506    -8.962461    -3.695312    13.027787    -3.012657    60.090714    33.986401    22.322124    -0.065594    -2.504724    11.939053    6.934191    -2.190606    5.071751    7.096158    5.668116    -6.102262    -12.706869    55.156544    3.723698    -8.079479    -0.751266    19.582354    -9.195741    -12.499972    -3.987296    3.375694    -8.385047    7.086880    -3.019598    24.070595    2.367851    6.338215    -10.633948    0.885816    1.251141    -2.084888    -0.078503    
-96.658752    82.055275    9.245842    -11.642701    2.704973    -98.227036    -2.022149    2.281057    -3.743307    3.066552    12.676275    -1.603436    -8.034192    19.861834    4.828634    8.113343    8.133327    0.905589    -0.918984    8.204268    9.083574    -57.681534    18.643143    -31.516525    13.823289    -8.016917    -30.406698    5.201519    -4.663307    -8.816182    -3.621314    12.781851    -2.677844    59.757877    33.998646    22.322720    -0.006973    -2.576185    13.018689    6.685092    -2.273031    5.177037    7.625052    4.135621    -7.240845    -15.593762    56.721741    7.354316    -8.344610    -1.643340    19.712944    -8.763063    -12.050671    -4.137508    3.746896    -7.634511    6.886151    -3.095220    24.021574    2.457290    5.790124    -10.679986    0.855363    1.392955    -2.322879    -0.081588    
-97.529907    82.075165    8.972081    -12.102193    2.618648    -98.126030    -2.052320    2.838959    -3.373804    2.897079    12.623961    -1.463445    -8.172297    20.447895    4.766088    8.881945    6.777101    0.705601    -0.954774    8.224572    9.020879    -57.239075    19.379772    -31.410931    12.811538    -7.676349    -29.368979    5.273707    -4.719556    -8.616397    -3.569162    12.575192    -2.710427    59.426472    34.119869    22.320213    -0.012658    -2.644442    14.226266    6.275792    -2.351140    5.321423    7.764534    3.015014    -5.680871    -15.056696    58.747635    6.513595    -7.344861    -2.735166    19.910210    -8.052121    -11.252874    -4.139681    3.756689    -6.421007    6.779659    -3.320305    23.890446    2.533015    5.306595    -10.913518    0.818834    1.244774    -2.074286    -0.078181    
-98.330856    82.172798    8.703089    -12.121734    2.926727    -97.839386    -1.403139    2.935470    -3.359461    2.426398    12.627132    -1.401068    -7.788796    20.100479    4.661257    8.213693    7.414842    0.822227    -0.988519    8.310940    9.146980    -57.655128    19.691938    -30.992086    12.617213    -7.204268    -28.482071    4.707693    -4.349299    -8.401577    -3.542423    12.525989    -2.470912    59.067917    33.992462    22.596809    -0.020930    -2.674453    15.195669    5.895925    -2.383775    5.589798    8.295368    1.426053    -5.575468    -16.316917    60.238960    7.718245    -6.583601    -3.817915    20.060993    -8.151219    -11.230894    -3.607917    4.246059    -5.525189    6.540170    -3.492202    23.483488    2.465715    4.694121    -11.287749    0.822725    0.738659    -1.151773    -0.205378    
